<svg width="39" height="39" viewBox="0 0 39 39" fill="none" xmlns="http://www.w3.org/2000/svg">
<g clip-path="url(#clip0_472_20455)">
<path d="M1.92371 32.1794V22.7368H11.3663" stroke="#A0161B" stroke-width="2.36066" stroke-linecap="round" stroke-linejoin="round"/>
<path d="M36.5467 6.99902V16.4416H27.1041" stroke="#A0161B" stroke-width="2.36066" stroke-linecap="round" stroke-linejoin="round"/>
<path d="M5.87387 14.8681C6.67204 12.6125 8.02857 10.5959 9.8169 9.00646C11.6052 7.41698 13.7671 6.30642 16.1007 5.77841C18.4343 5.2504 20.8636 5.32214 23.162 5.98696C25.4604 6.65177 27.553 7.88798 29.2444 9.58023L36.5467 16.4419M1.92371 22.737L9.226 29.5986C10.9174 31.2908 13.0099 32.5271 15.3083 33.1919C17.6067 33.8567 20.0361 33.9284 22.3697 33.4004C24.7033 32.8724 26.8651 31.7618 28.6535 30.1724C30.4418 28.5829 31.7983 26.5663 32.5965 24.3107" stroke="#A0161B" stroke-width="2.36066" stroke-linecap="round" stroke-linejoin="round"/>
</g>
<defs>
<clipPath id="clip0_472_20455">
<rect width="37.7705" height="37.7705" fill="white" transform="translate(0.349976 0.704102)"/>
</clipPath>
</defs>
</svg>
