<svg width="39" height="39" viewBox="0 0 39 39" fill="none" xmlns="http://www.w3.org/2000/svg">
<g clip-path="url(#clip0_472_20447)">
<path d="M2.51941 32.1794V22.7368H11.962" stroke="#A0161B" stroke-width="2.36066" stroke-linecap="round" stroke-linejoin="round"/>
<path d="M37.1423 6.99902V16.4416H27.6997" stroke="#A0161B" stroke-width="2.36066" stroke-linecap="round" stroke-linejoin="round"/>
<path d="M6.46957 14.8681C7.26774 12.6125 8.62427 10.5959 10.4126 9.00646C12.2009 7.41698 14.3628 6.30642 16.6964 5.77841C19.03 5.2504 21.4594 5.32214 23.7577 5.98696C26.0561 6.65177 28.1487 7.88798 29.8401 9.58023L37.1424 16.4419M2.51941 22.737L9.8217 29.5986C11.5131 31.2908 13.6056 32.5271 15.904 33.1919C18.2024 33.8567 20.6318 33.9284 22.9654 33.4004C25.299 32.8724 27.4608 31.7618 29.2492 30.1724C31.0375 28.5829 32.394 26.5663 33.1922 24.3107" stroke="#A0161B" stroke-width="2.36066" stroke-linecap="round" stroke-linejoin="round"/>
</g>
<defs>
<clipPath id="clip0_472_20447">
<rect width="37.7705" height="37.7705" fill="white" transform="translate(0.945618 0.704102)"/>
</clipPath>
</defs>
</svg>
